<svg width="130" height="128" viewBox="0 0 130 128" fill="none" xmlns="http://www.w3.org/2000/svg" xmlns:xlink="http://www.w3.org/1999/xlink">
<path d="M83.13,75.392C87.835,75.392 92.486,76.569 96.582,78.795C97.326,79.196 98.009,79.673 98.706,80.133C105.428,66.974 108.976,53.056 108.976,39.478C108.976,38.714 108.976,37.927 108.952,37.139C108.902,36.031 108.115,35.071 107.007,34.825C92.139,31.576 78.675,23.527 68.09,11.564L66.515,9.767C66.047,9.225 65.382,8.93 64.668,8.93C63.905,8.832 63.315,9.201 62.847,9.718L60.435,12.376C50.391,23.428 37.739,31.059 23.856,34.456L22.256,34.85C21.173,35.096 20.41,36.056 20.385,37.164C19.499,71.773 39.93,96.659 48.742,105.767C51.128,108.216 53.788,110.651 56.318,112.664C55.369,109.802 54.823,106.791 54.823,103.7C54.823,88.09 67.521,75.392 83.13,75.392Z" fill="url(#pf_0_i_22728_11401;22728_7158)"/>
<path d="M94.231,83.119C90.834,81.273 86.994,80.313 83.13,80.313C70.231,80.313 59.745,90.799 59.745,103.697C59.745,108.054 60.927,112.313 63.191,115.955C67.499,122.922 74.933,127.082 83.13,127.082C96.004,127.082 106.514,116.595 106.514,103.697C106.514,95.082 101.813,87.205 94.231,83.119ZM95.106,100.583L76.816,114.817L70.572,105.05C69.839,103.905 70.175,102.383 71.32,101.651C72.467,100.918 73.99,101.255 74.719,102.398L78.054,107.615L92.082,96.699C93.153,95.864 94.701,96.055 95.537,97.129C96.372,98.203 96.178,99.749 95.106,100.583Z" fill="url(#pf_0_i_22728_11401;22728_7159)"/>
<defs>
<linearGradient id="pf_0_i_22728_11401;22728_7158" x1="64.667" y1="8.914" x2="64.667" y2="112.664" gradientUnits="userSpaceOnUse">
<stop stop-color="#EF8080"/>
<stop offset="1" stop-color="#F0145A"/>
</linearGradient>
<linearGradient id="pf_0_i_22728_11401;22728_7159" x1="83.13" y1="80.313" x2="83.13" y2="127.082" gradientUnits="userSpaceOnUse">
<stop stop-color="#EF8080"/>
<stop offset="1" stop-color="#F0145A"/>
</linearGradient>
</defs>
</svg>
