<svg width="1746" height="2000" viewBox="0 0 1746 2000" fill="none" xmlns="http://www.w3.org/2000/svg" xmlns:xlink="http://www.w3.org/1999/xlink">
<path d="M613.547,851.063L1081.557,851.063C1216.001,851.063 1328.205,908.415 1397.971,1005.331C1467.685,1102.253 1469.835,1263.969 1429.183,1390.482L1377.205,1551.997C1355.501,1619.438 1253.863,1938.38 1234.043,1999.999L978.723,1999.999C978.723,1999.999 982.627,2003.418 1195.911,1340.425C1214.743,1281.916 1225.497,1186.946 1195.911,1145.872C1166.379,1104.804 1116.545,1080.499 1050.609,1080.499L668.049,1080.499C592.932,1080.499 526.365,1129.355 503.127,1201.514L613.547,851.063Z" clip-rule="evenodd" fill-rule="evenodd" fill="url(#pf_0_i_22728_11351;22728_11330)"/>
<path d="M248.671,2000L-0.925,2000C211.509,1332.938 426.355,666.66 640.045,0L889.301,0C888.249,3.334 887.185,6.677 886.105,10.029C540.339,1073.918 658.285,714.636 248.671,2000Z" clip-rule="evenodd" fill-rule="evenodd" fill="#F0145A"/>
<defs>
<linearGradient id="pf_0_i_22728_11351;22728_11330" x1="1306.191" y1="1999.996" x2="641.016" y2="1321.245" gradientUnits="userSpaceOnUse">
<stop stop-color="#F0145A"/>
<stop offset="1" stop-color="#693264"/>
</linearGradient>
</defs>
</svg>
