<svg width="128" height="128" viewBox="0 0 128 128" fill="none" xmlns="http://www.w3.org/2000/svg" xmlns:xlink="http://www.w3.org/1999/xlink">
<path d="M84.011,112L46.011,112L46.011,124L84.011,124L84.011,112Z" fill="#000000"/>
<path d="M84.011,112L46.011,112L46.011,124L84.011,124L84.011,112Z" fill="url(#pf_1_i_22728_11395;22728_7152)"/>
<path d="M39.446,16.874L1.446,16.874L1.446,26.874L39.446,26.874L39.446,16.874Z" transform="rotate(-90 20.446 21.874)" fill="#000000"/>
<path d="M39.446,16.874L1.446,16.874L1.446,26.874L39.446,26.874L39.446,16.874Z" transform="rotate(-90 20.446 21.874)" fill="url(#pf_1_i_22728_11395;22728_7153)"/>
<path d="M113.125,2.61L103.125,2.61L103.125,40.61L113.125,40.61L113.125,2.61Z" transform="rotate(-90 108.125 21.61)" fill="#000000"/>
<path d="M113.125,2.61L103.125,2.61L103.125,40.61L113.125,40.61L113.125,2.61Z" transform="rotate(-90 108.125 21.61)" fill="url(#pf_1_i_22728_11395;22728_7154)"/>
<path d="M89.113,19.417L83.73,19.189C82.178,18.97 80.596,19.114 79.11,19.611C77.623,20.108 76.272,20.944 75.164,22.052L64.155,33.061L52.648,21.554C51.649,20.578 50.402,19.893 49.043,19.572C47.683,19.252 46.262,19.309 44.932,19.736C43.678,20.117 42.343,20.151 41.071,19.833C39.799,19.515 38.637,18.857 37.71,17.93L36.002,16.222L14.789,37.435L18.245,40.891L18.017,46.274C17.798,47.826 17.942,49.407 18.439,50.894C18.936,52.381 19.772,53.731 20.88,54.84L40.105,74.065C40.362,71.541 41.571,69.21 43.486,67.547L37.496,61.557L38.911,60.143L45.167,66.399C46.054,65.894 47.013,65.53 48.012,65.318L48.012,57.93L44.567,54.486L45.982,53.072L48.012,55.102L48.012,44.402C47.989,42.634 48.617,40.918 49.776,39.582C50.934,38.246 52.543,37.381 54.297,37.152C54.958,37.088 55.626,37.118 56.278,37.242L53.82,34.783L55.234,33.369L58.826,36.961C59.462,35.728 60.447,34.709 61.657,34.031C62.867,33.352 64.249,33.044 65.633,33.144C67.303,33.339 68.852,34.112 70.011,35.329C71.171,36.547 71.868,38.131 71.982,39.808C73.119,39.268 74.379,39.039 75.633,39.144C77.415,39.358 79.054,40.225 80.233,41.579C81.412,42.933 82.046,44.676 82.012,46.471L82.012,53.318C83.832,53.698 85.51,54.578 86.858,55.859C88.206,57.139 89.171,58.77 89.644,60.569L95.221,54.992L96.635,56.406L90.005,63.036C90.005,63.064 90.012,63.089 90.012,63.117L90.012,69.757C91.809,69.569 93.487,68.773 94.77,67.5L108.45,53.82C109.426,52.821 110.111,51.574 110.431,50.215C110.752,48.855 110.695,47.434 110.268,46.104C109.886,44.85 109.853,43.515 110.171,42.243C110.489,40.971 111.147,39.809 112.074,38.882L113.782,37.174L92.569,15.961L89.113,19.417Z" fill="#000000"/>
<path d="M89.113,19.417L83.73,19.189C82.178,18.97 80.596,19.114 79.11,19.611C77.623,20.108 76.272,20.944 75.164,22.052L64.155,33.061L52.648,21.554C51.649,20.578 50.402,19.893 49.043,19.572C47.683,19.252 46.262,19.309 44.932,19.736C43.678,20.117 42.343,20.151 41.071,19.833C39.799,19.515 38.637,18.857 37.71,17.93L36.002,16.222L14.789,37.435L18.245,40.891L18.017,46.274C17.798,47.826 17.942,49.407 18.439,50.894C18.936,52.381 19.772,53.731 20.88,54.84L40.105,74.065C40.362,71.541 41.571,69.21 43.486,67.547L37.496,61.557L38.911,60.143L45.167,66.399C46.054,65.894 47.013,65.53 48.012,65.318L48.012,57.93L44.567,54.486L45.982,53.072L48.012,55.102L48.012,44.402C47.989,42.634 48.617,40.918 49.776,39.582C50.934,38.246 52.543,37.381 54.297,37.152C54.958,37.088 55.626,37.118 56.278,37.242L53.82,34.783L55.234,33.369L58.826,36.961C59.462,35.728 60.447,34.709 61.657,34.031C62.867,33.352 64.249,33.044 65.633,33.144C67.303,33.339 68.852,34.112 70.011,35.329C71.171,36.547 71.868,38.131 71.982,39.808C73.119,39.268 74.379,39.039 75.633,39.144C77.415,39.358 79.054,40.225 80.233,41.579C81.412,42.933 82.046,44.676 82.012,46.471L82.012,53.318C83.832,53.698 85.51,54.578 86.858,55.859C88.206,57.139 89.171,58.77 89.644,60.569L95.221,54.992L96.635,56.406L90.005,63.036C90.005,63.064 90.012,63.089 90.012,63.117L90.012,69.757C91.809,69.569 93.487,68.773 94.77,67.5L108.45,53.82C109.426,52.821 110.111,51.574 110.431,50.215C110.752,48.855 110.695,47.434 110.268,46.104C109.886,44.85 109.853,43.515 110.171,42.243C110.489,40.971 111.147,39.809 112.074,38.882L113.782,37.174L92.569,15.961L89.113,19.417Z" fill="url(#pf_1_i_22728_11395;22728_7155)"/>
<path d="M59.761,43.38C59.609,42.081 58.952,40.894 57.932,40.075C56.912,39.256 55.611,38.871 54.309,39.003C53.047,39.177 51.893,39.809 51.066,40.779C50.239,41.748 49.797,42.988 49.825,44.262L49.825,66.977C47.703,66.977 45.668,67.82 44.168,69.32C42.668,70.82 41.825,72.855 41.825,74.977L41.825,94.324C41.841,95.721 42.238,97.086 42.973,98.274C43.708,99.462 44.753,100.427 45.995,101.065C47.152,101.682 48.119,102.602 48.794,103.727C49.468,104.851 49.825,106.138 49.825,107.449L49.825,109.864L79.825,109.864L79.825,104.977L83.792,101.332C85.045,100.39 86.061,99.169 86.761,97.766C87.46,96.364 87.825,94.818 87.825,93.25L87.825,62.977C87.825,60.855 86.982,58.82 85.482,57.32C83.981,55.82 81.947,54.977 79.825,54.977L79.825,46.332C79.859,45.037 79.413,43.776 78.572,42.791C77.732,41.806 76.556,41.167 75.273,40.997C74.013,40.885 72.758,41.257 71.761,42.037C70.765,42.816 70.103,43.945 69.908,45.195L70.825,45.195L70.825,76.081L68.825,76.081L68.825,45.195L69.825,45.195L69.825,40.332C69.859,39.037 69.413,37.776 68.572,36.791C67.732,35.806 66.556,35.167 65.273,34.997C64.581,34.935 63.884,35.017 63.226,35.239C62.568,35.461 61.964,35.818 61.451,36.286C60.939,36.755 60.529,37.325 60.249,37.96C59.969,38.596 59.825,39.283 59.825,39.977L59.825,43.38L60.825,43.38L60.825,74.267L58.825,74.267L58.825,43.38L59.761,43.38ZM50.623,84.081L48.623,84.081L48.623,68.081L50.623,68.081L50.623,84.081ZM78.825,55.598L80.825,55.598L80.825,76.485L78.825,76.485L78.825,55.598Z" fill="#000000"/>
<path d="M59.761,43.38C59.609,42.081 58.952,40.894 57.932,40.075C56.912,39.256 55.611,38.871 54.309,39.003C53.047,39.177 51.893,39.809 51.066,40.779C50.239,41.748 49.797,42.988 49.825,44.262L49.825,66.977C47.703,66.977 45.668,67.82 44.168,69.32C42.668,70.82 41.825,72.855 41.825,74.977L41.825,94.324C41.841,95.721 42.238,97.086 42.973,98.274C43.708,99.462 44.753,100.427 45.995,101.065C47.152,101.682 48.119,102.602 48.794,103.727C49.468,104.851 49.825,106.138 49.825,107.449L49.825,109.864L79.825,109.864L79.825,104.977L83.792,101.332C85.045,100.39 86.061,99.169 86.761,97.766C87.46,96.364 87.825,94.818 87.825,93.25L87.825,62.977C87.825,60.855 86.982,58.82 85.482,57.32C83.981,55.82 81.947,54.977 79.825,54.977L79.825,46.332C79.859,45.037 79.413,43.776 78.572,42.791C77.732,41.806 76.556,41.167 75.273,40.997C74.013,40.885 72.758,41.257 71.761,42.037C70.765,42.816 70.103,43.945 69.908,45.195L70.825,45.195L70.825,76.081L68.825,76.081L68.825,45.195L69.825,45.195L69.825,40.332C69.859,39.037 69.413,37.776 68.572,36.791C67.732,35.806 66.556,35.167 65.273,34.997C64.581,34.935 63.884,35.017 63.226,35.239C62.568,35.461 61.964,35.818 61.451,36.286C60.939,36.755 60.529,37.325 60.249,37.96C59.969,38.596 59.825,39.283 59.825,39.977L59.825,43.38L60.825,43.38L60.825,74.267L58.825,74.267L58.825,43.38L59.761,43.38ZM50.623,84.081L48.623,84.081L48.623,68.081L50.623,68.081L50.623,84.081ZM78.825,55.598L80.825,55.598L80.825,76.485L78.825,76.485L78.825,55.598Z" fill="url(#pf_1_i_22728_11395;22728_7156)"/>
<defs>
<linearGradient id="pf_1_i_22728_11395;22728_7152" x1="65.011" y1="112" x2="65.011" y2="124" gradientUnits="userSpaceOnUse">
<stop stop-color="#EF8080"/>
<stop offset="1" stop-color="#F0145A"/>
</linearGradient>
<linearGradient id="pf_1_i_22728_11395;22728_7153" x1="16.91" y1="18.338" x2="23.981" y2="25.409" gradientUnits="userSpaceOnUse">
<stop stop-color="#EF8080"/>
<stop offset="1" stop-color="#F0145A"/>
</linearGradient>
<linearGradient id="pf_1_i_22728_11395;22728_7154" x1="94.69" y1="8.175" x2="121.56" y2="35.046" gradientUnits="userSpaceOnUse">
<stop stop-color="#EF8080"/>
<stop offset="1" stop-color="#F0145A"/>
</linearGradient>
<linearGradient id="pf_1_i_22728_11395;22728_7155" x1="64.285" y1="15.961" x2="64.285" y2="74.065" gradientUnits="userSpaceOnUse">
<stop stop-color="#EF8080"/>
<stop offset="1" stop-color="#F0145A"/>
</linearGradient>
<linearGradient id="pf_1_i_22728_11395;22728_7156" x1="64.825" y1="34.977" x2="64.825" y2="109.864" gradientUnits="userSpaceOnUse">
<stop stop-color="#EF8080"/>
<stop offset="1" stop-color="#F0145A"/>
</linearGradient>
</defs>
</svg>
