<svg width="128" height="128" viewBox="0 0 128 128" fill="none" xmlns="http://www.w3.org/2000/svg" xmlns:xlink="http://www.w3.org/1999/xlink">
<path d="M47.468,56.25C49.676,56.25 51.468,54.458 51.468,52.25L51.468,36.65C51.468,29.676 57.142,24 64.116,24C71.09,24 76.766,29.676 76.766,36.65L76.766,52.25C76.766,54.458 78.556,56.25 80.766,56.25C82.974,56.25 84.766,54.458 84.766,52.25L84.766,36.65C84.768,25.264 75.504,16 64.116,16C52.732,16 43.468,25.264 43.468,36.65L43.468,52.25C43.468,54.458 45.26,56.25 47.468,56.25Z" fill="url(#pf_0_i_22728_11376;22728_7127)"/>
<path d="M110,47.266L88.768,47.266L88.768,52.254C88.768,56.666 85.18,60.254 80.768,60.254C76.356,60.254 72.768,56.666 72.768,52.254L72.768,47.266L55.47,47.266L55.47,52.254C55.47,56.666 51.882,60.254 47.47,60.254C43.058,60.254 39.47,56.666 39.47,52.254L39.47,47.266L18,47.266C16.896,47.266 16.214,48.136 16.476,49.208L30.472,106.202C31.316,109.406 34.688,112.004 38,112.004L90,112.004C93.316,112.004 96.684,109.406 97.532,106.202L111.524,49.208C111.786,48.134 111.106,47.266 110,47.266Z" fill="url(#pf_0_i_22728_11376;22728_7128)"/>
<path d="M57.2,68.8C57.2,67.253 58.453,66 60,66C61.547,66 62.8,67.253 62.8,68.8L62.8,82.7L62.8,80C62.8,78.453 64.053,77.2 65.6,77.2C67.147,77.2 68.4,78.453 68.4,80L68.4,83.353C68.425,81.828 69.669,78.6 71.2,78.6C72.746,78.6 74,79.854 74,81.4C74,81.4 74.082,83.482 74.266,83.607C74.714,82.657 75.68,80 76.8,80C78.346,80 79.6,81.254 79.6,82.8L79.6,96.8C79.6,99.893 77.093,102.4 74,102.4L64.64,102.4C61.669,102.4 58.82,101.22 56.72,99.12L52.3,94.7L46,91.88C46.01,89.207 48.105,88.4 50.2,88.4C52.005,88.4 53.627,88.681 57.2,90.5L57.2,68.8Z" fill="#FFFFFF"/>
<defs>
<linearGradient id="pf_0_i_22728_11376;22728_7127" x1="64.117" y1="16" x2="64.117" y2="56.25" gradientUnits="userSpaceOnUse">
<stop stop-color="#EF8080"/>
<stop offset="1" stop-color="#F0145A"/>
</linearGradient>
<linearGradient id="pf_0_i_22728_11376;22728_7128" x1="64" y1="47.266" x2="64" y2="112.004" gradientUnits="userSpaceOnUse">
<stop stop-color="#EF8080"/>
<stop offset="1" stop-color="#F0145A"/>
</linearGradient>
</defs>
</svg>
