<svg width="128" height="128" viewBox="0 0 128 128" fill="none" xmlns="http://www.w3.org/2000/svg" xmlns:xlink="http://www.w3.org/1999/xlink">
<path d="M120.387,75.455C119.012,74.885 117.564,74.596 116.084,74.596C112.821,74.596 109.806,75.989 107.713,78.323L105.273,77.312L98.313,74.429C99.301,71.123 99.834,67.623 99.834,64C99.834,60.377 99.3,56.876 98.313,53.57L105.273,50.687L107.713,49.676C109.806,52.01 112.821,53.403 116.084,53.403C117.564,53.403 119.012,53.114 120.387,52.544C126.117,50.17 128.849,43.577 126.475,37.845C124.727,33.626 120.646,30.899 116.078,30.899C114.599,30.899 113.151,31.187 111.776,31.757C107.26,33.628 104.609,38.12 104.849,42.744L102.394,43.761L95.436,46.643C92.056,40.416 86.917,35.277 80.69,31.897L83.572,24.939L84.588,22.487C84.784,22.497 84.982,22.503 85.18,22.503C89.747,22.503 93.828,19.777 95.576,15.557C97.95,9.826 95.219,3.232 89.488,0.858C88.113,0.289 86.665,0 85.186,0C80.618,0 76.537,2.727 74.789,6.947C72.918,11.463 74.22,16.514 77.66,19.614L76.647,22.06L73.764,29.02C70.457,28.033 66.957,27.5 63.334,27.5C59.711,27.5 56.21,28.033 52.904,29.02L50.021,22.06L49.008,19.614C52.448,16.514 53.75,11.463 51.879,6.946C50.131,2.727 46.049,0 41.482,0C40.002,0 38.555,0.289 37.18,0.858C31.449,3.232 28.717,9.826 31.091,15.557C32.839,19.777 36.92,22.504 41.488,22.504C41.686,22.504 41.883,22.498 42.08,22.488L43.095,24.939L45.977,31.897C39.75,35.278 34.611,40.417 31.231,46.644L24.273,43.762L21.819,42.745C22.059,38.12 19.408,33.629 14.891,31.758C13.516,31.188 12.069,30.899 10.589,30.899C6.021,30.899 1.941,33.626 0.192,37.846C-2.181,43.577 0.55,50.171 6.281,52.545C7.656,53.115 9.103,53.403 10.583,53.403C13.847,53.403 16.861,52.011 18.954,49.677L21.394,50.687L28.355,53.57C27.367,56.877 26.834,60.377 26.834,64C26.834,67.623 27.367,71.124 28.355,74.43L21.394,77.312L18.954,78.323C16.861,75.989 13.846,74.596 10.583,74.596C9.103,74.596 7.656,74.885 6.281,75.455C0.55,77.829 -2.182,84.423 0.192,90.154C1.94,94.374 6.021,97.101 10.589,97.101C12.069,97.101 13.516,96.812 14.891,96.242C19.408,94.371 22.059,89.88 21.819,85.255L24.273,84.238L31.231,81.356C34.611,87.583 39.75,92.723 45.977,96.103L43.095,103.061L42.08,105.512C41.883,105.502 41.686,105.496 41.488,105.496C36.92,105.496 32.839,108.223 31.091,112.443C28.717,118.174 31.448,124.768 37.179,127.142C38.554,127.711 40.002,128 41.482,128C46.049,128 50.13,125.273 51.878,121.053C53.749,116.537 52.448,111.486 49.008,108.385L50.021,105.94L52.904,98.979C56.21,99.967 59.71,100.5 63.333,100.5C66.956,100.5 70.457,99.967 73.763,98.979L76.646,105.94L77.659,108.385C74.219,111.486 72.918,116.537 74.788,121.053C76.536,125.273 80.617,128 85.185,128C86.665,128 88.112,127.711 89.487,127.142C95.218,124.768 97.949,118.174 95.575,112.443C93.827,108.223 89.746,105.496 85.179,105.496C84.981,105.496 84.784,105.502 84.587,105.512L83.571,103.061L80.689,96.103C86.916,92.722 92.056,87.583 95.436,81.356L102.394,84.238L104.848,85.255C104.608,89.88 107.259,94.371 111.775,96.242C113.15,96.812 114.598,97.101 116.078,97.101C120.645,97.101 124.726,94.374 126.474,90.154C128.849,84.423 126.118,77.829 120.387,75.455ZM63.334,93C47.343,93 34.334,79.99 34.334,64C34.334,48.009 47.343,35 63.334,35C79.324,35 92.334,48.009 92.334,64C92.334,79.99 79.324,93 63.334,93Z" fill="#000000"/>
<path d="M120.387,75.455C119.012,74.885 117.564,74.596 116.084,74.596C112.821,74.596 109.806,75.989 107.713,78.323L105.273,77.312L98.313,74.429C99.301,71.123 99.834,67.623 99.834,64C99.834,60.377 99.3,56.876 98.313,53.57L105.273,50.687L107.713,49.676C109.806,52.01 112.821,53.403 116.084,53.403C117.564,53.403 119.012,53.114 120.387,52.544C126.117,50.17 128.849,43.577 126.475,37.845C124.727,33.626 120.646,30.899 116.078,30.899C114.599,30.899 113.151,31.187 111.776,31.757C107.26,33.628 104.609,38.12 104.849,42.744L102.394,43.761L95.436,46.643C92.056,40.416 86.917,35.277 80.69,31.897L83.572,24.939L84.588,22.487C84.784,22.497 84.982,22.503 85.18,22.503C89.747,22.503 93.828,19.777 95.576,15.557C97.95,9.826 95.219,3.232 89.488,0.858C88.113,0.289 86.665,0 85.186,0C80.618,0 76.537,2.727 74.789,6.947C72.918,11.463 74.22,16.514 77.66,19.614L76.647,22.06L73.764,29.02C70.457,28.033 66.957,27.5 63.334,27.5C59.711,27.5 56.21,28.033 52.904,29.02L50.021,22.06L49.008,19.614C52.448,16.514 53.75,11.463 51.879,6.946C50.131,2.727 46.049,0 41.482,0C40.002,0 38.555,0.289 37.18,0.858C31.449,3.232 28.717,9.826 31.091,15.557C32.839,19.777 36.92,22.504 41.488,22.504C41.686,22.504 41.883,22.498 42.08,22.488L43.095,24.939L45.977,31.897C39.75,35.278 34.611,40.417 31.231,46.644L24.273,43.762L21.819,42.745C22.059,38.12 19.408,33.629 14.891,31.758C13.516,31.188 12.069,30.899 10.589,30.899C6.021,30.899 1.941,33.626 0.192,37.846C-2.181,43.577 0.55,50.171 6.281,52.545C7.656,53.115 9.103,53.403 10.583,53.403C13.847,53.403 16.861,52.011 18.954,49.677L21.394,50.687L28.355,53.57C27.367,56.877 26.834,60.377 26.834,64C26.834,67.623 27.367,71.124 28.355,74.43L21.394,77.312L18.954,78.323C16.861,75.989 13.846,74.596 10.583,74.596C9.103,74.596 7.656,74.885 6.281,75.455C0.55,77.829 -2.182,84.423 0.192,90.154C1.94,94.374 6.021,97.101 10.589,97.101C12.069,97.101 13.516,96.812 14.891,96.242C19.408,94.371 22.059,89.88 21.819,85.255L24.273,84.238L31.231,81.356C34.611,87.583 39.75,92.723 45.977,96.103L43.095,103.061L42.08,105.512C41.883,105.502 41.686,105.496 41.488,105.496C36.92,105.496 32.839,108.223 31.091,112.443C28.717,118.174 31.448,124.768 37.179,127.142C38.554,127.711 40.002,128 41.482,128C46.049,128 50.13,125.273 51.878,121.053C53.749,116.537 52.448,111.486 49.008,108.385L50.021,105.94L52.904,98.979C56.21,99.967 59.71,100.5 63.333,100.5C66.956,100.5 70.457,99.967 73.763,98.979L76.646,105.94L77.659,108.385C74.219,111.486 72.918,116.537 74.788,121.053C76.536,125.273 80.617,128 85.185,128C86.665,128 88.112,127.711 89.487,127.142C95.218,124.768 97.949,118.174 95.575,112.443C93.827,108.223 89.746,105.496 85.179,105.496C84.981,105.496 84.784,105.502 84.587,105.512L83.571,103.061L80.689,96.103C86.916,92.722 92.056,87.583 95.436,81.356L102.394,84.238L104.848,85.255C104.608,89.88 107.259,94.371 111.775,96.242C113.15,96.812 114.598,97.101 116.078,97.101C120.645,97.101 124.726,94.374 126.474,90.154C128.849,84.423 126.118,77.829 120.387,75.455ZM63.334,93C47.343,93 34.334,79.99 34.334,64C34.334,48.009 47.343,35 63.334,35C79.324,35 92.334,48.009 92.334,64C92.334,79.99 79.324,93 63.334,93Z" fill="url(#pf_1_i_22728_11388;22728_7146)"/>
<path d="M63.333,42.5C51.478,42.5 41.833,52.145 41.833,64C41.833,75.855 51.478,85.5 63.333,85.5C75.188,85.5 84.833,75.855 84.833,64C84.833,52.145 75.188,42.5 63.333,42.5ZM67.083,72.25L59.583,72.25L59.583,55.75L67.083,55.75L67.083,72.25Z" fill="#000000"/>
<path d="M63.333,42.5C51.478,42.5 41.833,52.145 41.833,64C41.833,75.855 51.478,85.5 63.333,85.5C75.188,85.5 84.833,75.855 84.833,64C84.833,52.145 75.188,42.5 63.333,42.5ZM67.083,72.25L59.583,72.25L59.583,55.75L67.083,55.75L67.083,72.25Z" fill="url(#pf_1_i_22728_11388;22728_7149)"/>
<defs>
<linearGradient id="pf_1_i_22728_11388;22728_7146" x1="63.334" y1="0" x2="63.334" y2="128" gradientUnits="userSpaceOnUse">
<stop stop-color="#EF8080"/>
<stop offset="1" stop-color="#F0145A"/>
</linearGradient>
<linearGradient id="pf_1_i_22728_11388;22728_7149" x1="63.333" y1="42.5" x2="63.333" y2="85.5" gradientUnits="userSpaceOnUse">
<stop stop-color="#EF8080"/>
<stop offset="1" stop-color="#F0145A"/>
</linearGradient>
</defs>
</svg>
