<svg width="92" height="96" viewBox="0 0 92 96" fill="none" xmlns="http://www.w3.org/2000/svg" xmlns:xlink="http://www.w3.org/1999/xlink">
<path d="M62.037,24.778C63.501,26.242 65.873,26.246 67.337,24.778L72.553,19.562C74.015,18.098 74.011,15.726 72.553,14.26L59.387,1.098C57.927,-0.366 55.555,-0.366 54.091,1.098L48.873,6.314C47.413,7.778 47.413,10.15 48.873,11.61L62.037,24.778Z" fill="url(#pf_0_i_22728_11407;22728_7163)"/>
<path d="M30.866,56.53C32.328,57.988 34.7,57.988 36.162,56.53L41.38,51.311C42.844,49.851 42.844,47.477 41.38,46.012L28.214,32.846C26.752,31.386 24.38,31.383 22.916,32.846L17.7,38.063C16.236,39.527 16.24,41.898 17.7,43.363L30.866,56.53Z" fill="url(#pf_0_i_22728_11407;22728_7164)"/>
<path d="M90.63,57.782L85.336,52.482C83.868,51.022 81.502,51.022 80.04,52.482L77.718,54.802L55.308,32.388L60.162,27.532L46.696,14.07L41.84,18.926L35.656,25.106L30.908,29.854L44.372,43.32L49.126,38.574L71.532,60.984L69.436,63.082C67.972,64.54 67.968,66.914 69.436,68.378L74.73,73.674C76.198,75.142 78.568,75.142 80.03,73.674L90.628,63.08C92.094,61.614 92.094,59.246 90.63,57.782Z" fill="url(#pf_0_i_22728_11407;22728_7165)"/>
<path d="M51.487,73.885C51.487,71.487 49.543,69.539 47.141,69.539L13.205,69.539C10.805,69.539 8.859,71.487 8.859,73.885L8.859,80.939L-0.667,80.939L-0.667,95.717L60.449,95.717L60.449,80.939L51.487,80.939L51.487,73.885Z" fill="url(#pf_0_i_22728_11407;22728_7166)"/>
<defs>
<linearGradient id="pf_0_i_22728_11407;22728_7163" x1="60.713" y1="0" x2="60.713" y2="25.878" gradientUnits="userSpaceOnUse">
<stop stop-color="#EF8080"/>
<stop offset="1" stop-color="#F0145A"/>
</linearGradient>
<linearGradient id="pf_0_i_22728_11407;22728_7164" x1="29.54" y1="31.75" x2="29.54" y2="57.624" gradientUnits="userSpaceOnUse">
<stop stop-color="#EF8080"/>
<stop offset="1" stop-color="#F0145A"/>
</linearGradient>
<linearGradient id="pf_0_i_22728_11407;22728_7165" x1="61.318" y1="14.07" x2="61.318" y2="74.775" gradientUnits="userSpaceOnUse">
<stop stop-color="#EF8080"/>
<stop offset="1" stop-color="#F0145A"/>
</linearGradient>
<linearGradient id="pf_0_i_22728_11407;22728_7166" x1="29.891" y1="69.539" x2="29.891" y2="95.717" gradientUnits="userSpaceOnUse">
<stop stop-color="#EF8080"/>
<stop offset="1" stop-color="#F0145A"/>
</linearGradient>
</defs>
</svg>
