<svg width="44" height="72" viewBox="0 0 44 72" fill="none" xmlns="http://www.w3.org/2000/svg" xmlns:xlink="http://www.w3.org/1999/xlink">
<path d="M9.913,0L0,0L0,71.597L9.913,71.597L9.913,45.035C9.913,40.542 11.031,36.997 13.267,34.5C15.502,32.004 18.563,30.706 22.354,30.706C25.61,30.706 28.331,31.904 30.518,34.201C32.705,36.548 33.822,39.493 33.822,43.038L33.822,71.647L43.784,71.647L43.784,43.038C43.784,36.448 41.986,31.255 38.39,27.361C34.794,23.466 30.08,21.519 24.346,21.519C22.694,21.519 21.042,21.719 19.438,22.168C17.786,22.618 16.474,23.117 15.405,23.666C14.336,24.215 13.315,24.814 12.392,25.513C11.468,26.212 10.837,26.712 10.545,27.011C10.254,27.311 10.011,27.51 9.913,27.66L9.913,0Z" fill="#F0145A"/>
</svg>
