<svg width="260" height="16" viewBox="0 0 260 16" fill="none" xmlns="http://www.w3.org/2000/svg" xmlns:xlink="http://www.w3.org/1999/xlink">
<path d="M0,0.237L3.198,0.237L3.198,11.451L10.128,11.451L10.128,14.057L0,14.057L0,0.237Z" fill="#FFFFFF"/>
<path d="M31.003,11.095L24.587,11.095L23.363,14.057L20.086,14.057L26.245,0.237L29.404,0.237L35.583,14.057L32.227,14.057L31.003,11.095ZM29.996,8.667L27.805,3.376L25.613,8.667L29.996,8.667Z" fill="#FFFFFF"/>
<path d="M67.024,0.237L62.503,14.057L59.068,14.057L56.028,4.699L52.889,14.057L49.473,14.057L44.932,0.237L48.249,0.237L51.368,9.95L54.626,0.237L57.587,0.237L60.746,10.029L63.964,0.237L67.024,0.237Z" fill="#FFFFFF"/>
<path d="M101.046,14.294C99.638,14.294 98.361,13.991 97.216,13.385C96.084,12.767 95.189,11.918 94.531,10.839C93.886,9.746 93.564,8.516 93.564,7.147C93.564,5.778 93.886,4.554 94.531,3.475C95.189,2.382 96.084,1.533 97.216,0.928C98.361,0.309 99.645,0 101.066,0C102.264,0 103.343,0.211 104.304,0.632C105.278,1.053 106.094,1.658 106.752,2.448L104.699,4.343C103.764,3.264 102.606,2.724 101.224,2.724C100.369,2.724 99.605,2.915 98.934,3.297C98.263,3.666 97.736,4.185 97.355,4.857C96.986,5.528 96.802,6.291 96.802,7.147C96.802,8.002 96.986,8.766 97.355,9.437C97.736,10.108 98.263,10.635 98.934,11.016C99.605,11.385 100.369,11.569 101.224,11.569C102.606,11.569 103.764,11.023 104.699,9.931L106.752,11.826C106.094,12.629 105.278,13.241 104.304,13.662C103.33,14.083 102.244,14.294 101.046,14.294Z" fill="#FFFFFF"/>
<path d="M125.187,14.294C123.752,14.294 122.456,13.984 121.297,13.366C120.152,12.747 119.251,11.898 118.593,10.819C117.948,9.726 117.625,8.502 117.625,7.147C117.625,5.791 117.948,4.574 118.593,3.494C119.251,2.402 120.152,1.546 121.297,0.928C122.456,0.309 123.752,0 125.187,0C126.621,0 127.911,0.309 129.056,0.928C130.201,1.546 131.103,2.402 131.761,3.494C132.419,4.574 132.748,5.791 132.748,7.147C132.748,8.502 132.419,9.726 131.761,10.819C131.103,11.898 130.201,12.747 129.056,13.366C127.911,13.984 126.621,14.294 125.187,14.294ZM125.187,11.569C126.003,11.569 126.74,11.385 127.398,11.016C128.056,10.635 128.569,10.108 128.938,9.437C129.319,8.766 129.51,8.002 129.51,7.147C129.51,6.291 129.319,5.528 128.938,4.857C128.569,4.185 128.056,3.666 127.398,3.297C126.74,2.915 126.003,2.724 125.187,2.724C124.371,2.724 123.634,2.915 122.975,3.297C122.317,3.666 121.797,4.185 121.416,4.857C121.047,5.528 120.863,6.291 120.863,7.147C120.863,8.002 121.047,8.766 121.416,9.437C121.797,10.108 122.317,10.635 122.975,11.016C123.634,11.385 124.371,11.569 125.187,11.569Z" fill="#FFFFFF"/>
<path d="M157.599,14.057L157.579,5.765L153.512,12.596L152.071,12.596L148.024,5.942L148.024,14.057L145.023,14.057L145.023,0.237L147.668,0.237L152.841,8.825L157.935,0.237L160.56,0.237L160.6,14.057L157.599,14.057Z" fill="#FFFFFF"/>
<path d="M179.732,0.237C180.956,0.237 182.015,0.441 182.91,0.849C183.819,1.257 184.516,1.836 185.003,2.586C185.49,3.336 185.734,4.225 185.734,5.252C185.734,6.265 185.49,7.153 185.003,7.917C184.516,8.667 183.819,9.246 182.91,9.654C182.015,10.049 180.956,10.246 179.732,10.246L176.948,10.246L176.948,14.057L173.75,14.057L173.75,0.237L179.732,0.237ZM179.554,7.64C180.515,7.64 181.245,7.436 181.746,7.028C182.246,6.607 182.496,6.015 182.496,5.252C182.496,4.475 182.246,3.883 181.746,3.475C181.245,3.054 180.515,2.843 179.554,2.843L176.948,2.843L176.948,7.64L179.554,7.64Z" fill="#FFFFFF"/>
<path d="M206.296,11.095L199.879,11.095L198.655,14.057L195.378,14.057L201.538,0.237L204.696,0.237L210.876,14.057L207.52,14.057L206.296,11.095ZM205.288,8.667L203.098,3.376L200.906,8.667L205.288,8.667Z" fill="#FFFFFF"/>
<path d="M234.856,0.237L234.856,14.057L232.23,14.057L225.34,5.666L225.34,14.057L222.18,14.057L222.18,0.237L224.826,0.237L231.696,8.628L231.696,0.237L234.856,0.237Z" fill="#FFFFFF"/>
<path d="M254.63,9.161L254.63,14.057L251.432,14.057L251.432,9.121L246.082,0.237L249.478,0.237L253.17,6.377L256.86,0.237L260,0.237L254.63,9.161Z" fill="#FFFFFF"/>
</svg>
