<svg width="50" height="72" viewBox="0 0 50 72" fill="none" xmlns="http://www.w3.org/2000/svg" xmlns:xlink="http://www.w3.org/1999/xlink">
<path d="M37.886,46.574C37.886,51.07 36.557,54.749 33.798,57.611C31.141,60.37 27.768,61.801 23.578,61.801C21.739,61.801 19.899,61.494 18.162,60.983C16.424,60.472 15.096,59.859 13.972,59.144C12.848,58.429 11.826,57.713 10.804,56.793C9.884,55.874 9.271,55.26 8.964,54.954C8.658,54.647 8.453,54.341 8.249,54.136L1.606,60.779L2.424,61.801C2.934,62.516 3.854,63.436 5.081,64.458C6.307,65.378 7.738,66.4 9.373,67.422C11.008,68.342 13.052,69.159 15.607,69.875C18.162,70.59 20.819,70.999 23.578,70.999C30.528,70.999 36.251,68.648 41.054,63.947C45.755,59.144 48.105,53.421 48.105,46.471L48.105,0.483L37.886,0.483L37.886,5.593L36.148,4.06C35.024,3.038 33.287,2.016 30.834,0.994C28.381,-0.028 25.724,-0.539 23.067,-0.539C16.833,-0.539 11.519,1.811 6.92,6.615C2.321,11.418 0.073,17.141 0.073,23.988C0.073,30.835 2.321,36.558 6.92,41.362C11.519,46.165 16.833,48.515 23.067,48.515C24.805,48.515 26.44,48.311 28.177,47.902C29.812,47.391 31.141,46.88 32.265,46.369C33.389,45.858 34.411,45.245 35.331,44.53C36.251,43.814 36.966,43.303 37.17,43.099L37.886,42.384L37.886,46.574ZM10.293,23.988C10.293,19.696 11.621,16.119 14.381,13.155C17.14,10.192 20.41,8.659 24.089,8.659C27.768,8.659 31.039,10.192 33.798,13.155C36.455,16.119 37.886,19.696 37.886,23.988C37.886,28.28 36.455,31.857 33.798,34.821C31.039,37.785 27.768,39.318 24.089,39.318C20.41,39.318 17.14,37.785 14.381,34.821C11.621,31.857 10.293,28.28 10.293,23.988Z" fill="#FFFFFF"/>
</svg>
