<svg width="42" height="52" viewBox="0 0 42 52" fill="none" xmlns="http://www.w3.org/2000/svg" xmlns:xlink="http://www.w3.org/1999/xlink">
<path d="M41.448,49.537L41.448,17.856C41.448,12.644 39.506,8.25 35.725,4.775C31.944,1.198 27.038,-0.539 21.009,-0.539C18.658,-0.539 16.308,-0.232 14.059,0.381C11.811,1.096 9.972,1.811 8.643,2.629C7.314,3.447 5.986,4.366 4.759,5.491C3.533,6.513 2.818,7.228 2.409,7.637C2.102,8.045 1.796,8.352 1.591,8.659L8.234,15.301L9.563,13.564C10.38,12.44 11.811,11.418 13.957,10.294C16.103,9.17 18.454,8.659 21.009,8.659C23.972,8.659 26.425,9.578 28.367,11.316C30.309,13.053 31.228,15.301 31.228,17.856L13.344,20.922C8.95,21.638 5.373,23.375 2.92,26.134C0.365,28.894 -0.964,32.266 -0.964,36.252C-0.964,40.033 0.672,43.303 3.942,46.165C7.314,49.129 11.402,50.559 16.41,50.559C18.147,50.559 19.782,50.355 21.417,49.844C23.155,49.435 24.483,48.924 25.608,48.413C26.732,47.902 27.754,47.289 28.673,46.574C29.593,45.858 30.206,45.347 30.615,45.143C30.922,44.836 31.126,44.53 31.228,44.428L31.228,49.537L41.448,49.537ZM17.943,41.362C15.286,41.362 13.14,40.749 11.607,39.522C9.972,38.296 9.256,36.865 9.256,35.23C9.256,33.493 9.767,31.96 10.891,30.835C12.015,29.711 13.548,28.894 15.388,28.587L31.228,26.032L31.228,27.054C31.228,31.653 30.104,35.128 27.754,37.683C25.403,40.135 22.133,41.362 17.943,41.362Z" fill="#FFFFFF"/>
</svg>
