<svg width="190" height="190" viewBox="0 0 190 190" fill="none" xmlns="http://www.w3.org/2000/svg" xmlns:xlink="http://www.w3.org/1999/xlink">
<path d="M188.681,95.579C188.681,42.968 146.291,0.319 94,0.319C41.709,0.319 -0.681,42.968 -0.681,95.579C-0.681,143.126 33.942,182.535 79.206,189.681L79.206,123.115L55.166,123.115L55.166,95.579L79.206,95.579L79.206,74.592C79.206,50.717 93.341,37.53 114.969,37.53C125.327,37.53 136.163,39.39 136.163,39.39L136.163,62.833L124.224,62.833C112.462,62.833 108.794,70.176 108.794,77.709L108.794,95.579L135.053,95.579L130.855,123.115L108.794,123.115L108.794,189.681C154.058,182.535 188.681,143.126 188.681,95.579Z" fill="#FFFFFF"/>
</svg>
