<svg width="76" height="76" viewBox="0 0 76 76" fill="none" xmlns="http://www.w3.org/2000/svg" xmlns:xlink="http://www.w3.org/1999/xlink">
<path d="M76,38.232C76,17.117 58.987,0 38,0C17.013,0 0,17.117 0,38.232C0,57.315 13.896,73.132 32.062,76L32.062,49.284L22.414,49.284L22.414,38.232L32.062,38.232L32.062,29.809C32.062,20.227 37.736,14.934 46.416,14.934C50.573,14.934 54.922,15.681 54.922,15.681L54.922,25.09L50.13,25.09C45.41,25.09 43.938,28.037 43.938,31.06L43.938,38.232L54.477,38.232L52.792,49.284L43.938,49.284L43.938,76C62.104,73.132 76,57.315 76,38.232Z" fill="#24A3FF"/>
</svg>
