<svg width="50" height="52" viewBox="0 0 50 52" fill="none" xmlns="http://www.w3.org/2000/svg" xmlns:xlink="http://www.w3.org/1999/xlink">
<path d="M48.223,28.587L48.734,23.477C48.734,16.63 46.486,10.907 41.887,6.308C37.288,1.709 31.565,-0.539 24.718,-0.539C17.87,-0.539 11.943,1.914 7.038,6.819C2.132,11.725 -0.321,17.55 -0.321,24.499C-0.321,31.653 2.234,37.785 7.242,42.895C12.25,48.004 18.279,50.559 25.229,50.559C27.886,50.559 30.338,50.151 32.791,49.435C35.244,48.618 37.288,47.8 38.719,46.983C40.252,46.063 41.784,45.041 43.113,43.917C44.442,42.792 45.361,41.975 45.77,41.464C46.179,40.953 46.486,40.646 46.69,40.34L40.047,33.697L38.514,35.639C37.492,36.865 35.755,38.091 33.302,39.42C30.747,40.749 28.09,41.362 25.229,41.362C21.243,41.362 17.87,40.135 15.009,37.58C12.147,35.025 10.41,32.062 9.899,28.587L48.223,28.587ZM24.718,8.148C28.499,8.148 31.565,9.272 34.12,11.418C36.572,13.666 38.105,16.426 38.719,19.9L10.308,19.9C11.228,16.426 12.863,13.666 15.418,11.418C17.87,9.272 21.039,8.148 24.718,8.148Z" fill="#FFFFFF"/>
</svg>
